# xmcd
# Track frame offsets:
# 150
# 5385
# 27095
# 40430
# 56100
# 75990
# 92970
# 108727
# 127625
# 146560
# 164722
# 183855
#
# Disc length: 2611 seconds
# Revision: 0
# Processed by: cddbd v1.5.2PL0 Copyright (c) Steve Scherf et al.
# Submitted via: VisiTrax 2.11.3.279 - For more info visit www.synapsa.com
#
DISCID=980a310c
DTITLE=Jerry Reed - Jerry Reed Live
DYEAR=1997
DGENRE=
TTITLE0=East Bound and Down
TTITLE1=Imogene
TTITLE2=Amos Moses
TTITLE3=Patches
TTITLE4=Down On The Corner
TTITLE5=Hard Times
TTITLE6=Sugar Foot Rag
TTITLE7=When Your Hot Your Hot
TTITLE8=She Got The Goldmine I Got The Shaft
TTITLE9=The Devil Went Down To Georgia
TTITLE10=Man With The Golden Thumb
TTITLE11=East Bound and Down
EXTD=
EXTT0=
EXTT1=
EXTT2=
EXTT3=
EXTT4=
EXTT5=
EXTT6=
EXTT7=
EXTT8=
EXTT9=
EXTT10=
EXTT11=
PLAYORDER=
